<?xml version="1.0" encoding="UTF-8" standalone="no"?>
<svg
   xmlns:dc="http://purl.org/dc/elements/1.1/"
   xmlns:cc="http://creativecommons.org/ns#"
   xmlns:rdf="http://www.w3.org/1999/02/22-rdf-syntax-ns#"
   xmlns:svg="http://www.w3.org/2000/svg"
   xmlns="http://www.w3.org/2000/svg"
   id="svg8"
   version="1.1"
   viewBox="0 0 8.4666664 8.4666669"
   height="32"
   width="32">
  <defs
     id="defs2" />
  <metadata
     id="metadata5">
    <rdf:RDF>
      <cc:Work
         rdf:about="">
        <dc:format>image/svg+xml</dc:format>
        <dc:type
           rdf:resource="http://purl.org/dc/dcmitype/StillImage" />
        <dc:title></dc:title>
        <dc:creator>
          <cc:Agent>
            <dc:title>David Lettier</dc:title>
          </cc:Agent>
        </dc:creator>
        <dc:rights>
          <cc:Agent>
            <dc:title>(C) David Lettier</dc:title>
          </cc:Agent>
        </dc:rights>
      </cc:Work>
    </rdf:RDF>
  </metadata>
  <g
     transform="translate(0,-288.53333)"
     id="layer1">
    <rect
       ry="4.2333331"
       y="288.53333"
       x="0"
       height="8.4666662"
       width="8.4666662"
       id="rect819"
       style="fill:#ffe4c4;fill-opacity:1;fill-rule:nonzero;stroke:none;stroke-width:3.17499995;stroke-linecap:round;stroke-linejoin:round;stroke-miterlimit:4;stroke-dasharray:none;stroke-opacity:1;paint-order:stroke fill markers" />
    <g
       id="text817"
       style="font-style:normal;font-variant:normal;font-weight:bold;font-stretch:normal;font-size:5.79819536px;line-height:125%;font-family:Caveat;-inkscape-font-specification:'Caveat Bold';text-align:start;letter-spacing:0.8697294px;word-spacing:0px;writing-mode:lr-tb;text-anchor:start;fill:#f88379;fill-opacity:1;stroke:none;stroke-width:0.43486464px;stroke-linecap:butt;stroke-linejoin:miter;stroke-opacity:1"
       aria-label="HF" />
    <path
       id="path815"
       style="font-style:normal;font-variant:normal;font-weight:bold;font-stretch:normal;font-size:5.79819536px;line-height:125%;font-family:Caveat;-inkscape-font-specification:'Caveat Bold';text-align:start;letter-spacing:0.8697294px;word-spacing:0px;writing-mode:lr-tb;text-anchor:start;fill:#f88379;fill-opacity:1;stroke:none;stroke-width:0.43486464px;stroke-linecap:butt;stroke-linejoin:miter;stroke-opacity:1"
       d="m 0.83463444,295.11495 q -0.0347892,-0.0116 -0.13915669,-0.0464 -0.10436752,-0.029 -0.14495488,-0.029 -0.0695784,-0.0174 -0.11596391,-0.0754 -0.0405874,-0.058 -0.0405874,-0.13336 0,-0.0406 0.005798,-0.0638 0.0173946,-0.0174 0.028991,-0.0928 0.0173946,-0.0696 0.0173946,-0.12756 0.0173946,-0.0348 0.028991,-0.0696 0.0115964,-0.0406 0.028991,-0.11017 0.0463856,-0.25512 0.21453323,-0.85813 0.16814767,-0.60302 0.20873503,-0.6436 v -0.0638 q 0,-0.0174 0.0115964,-0.0696 0.0115964,-0.0522 0.0521838,-0.11017 0.0231928,-0.0696 0.0347892,-0.13336 0.017395,-0.0696 0.023193,-0.10436 0.023193,-0.029 0.075377,-0.17395 0.057982,-0.14495 0.075376,-0.19134 0.040587,-0.11017 0.098569,-0.25512 0.06378,-0.15075 0.086973,-0.19714 v -0.029 q 0.011596,-0.0116 0.057982,-0.11596 0.052184,-0.11017 0.086973,-0.18555 0.040587,-0.0928 0.2145332,-0.48125 0.011596,-0.0232 0.06378,-0.13335 0.052184,-0.11017 0.052184,-0.13916 0.057982,-0.0638 0.1275603,-0.0638 0.086973,0 0.1623495,0.0812 0.081175,0.0754 0.1275603,0.16235 l 0.057982,0.0928 -0.2145332,0.41747 q -0.086973,0.15655 -0.1565513,0.29571 -0.069578,0.13336 -0.069578,0.15655 -0.017395,0.0406 -0.06378,0.16815 -0.040587,0.12756 -0.092771,0.28991 -0.081175,0.22033 -0.1333585,0.3305 -0.046385,0.0928 -0.046385,0.11016 0,-0.0232 0.6435996,-0.0232 0.098569,0 0.3594882,-0.006 0.2609187,-0.006 0.3304971,-0.0174 l 0.3015062,-0.029 0.1623494,-0.51604 q 0.057982,-0.20294 0.2551206,-0.78856 0.081175,-0.24352 0.1855423,-0.35949 0.1043675,-0.12176 0.1855422,-0.12176 0.023193,0 0.1159639,0.0696 0.098569,0.0638 0.1159639,0.11017 0.06378,0.0638 0.06378,0.13336 0,0.0812 -0.092771,0.22612 -0.069578,0.12177 -0.1971387,0.45806 -0.052184,0.15655 -0.06378,0.17975 0,0.12176 -0.057982,0.17974 -0.023193,0.0232 -0.081175,0.16815 -0.057982,0.13915 -0.057982,0.16235 0,0.0464 -0.017395,0.10436 -0.017395,0.0522 -0.040587,0.0754 l -0.040587,0.13916 q -0.2029368,0.73637 -0.3189007,1.02048 0,0.029 -0.028991,0.10437 -0.028991,0.0754 -0.028991,0.10437 -0.011596,0.0406 -0.052184,0.16235 -0.040587,0.12176 -0.040587,0.14495 -0.040587,0.17974 -0.081175,0.42327 -0.040587,0.24352 -0.052184,0.34209 -0.098569,0.0116 -0.1623495,-0.0116 -0.06378,-0.0232 -0.1217621,-0.0638 -0.057982,-0.0348 -0.081175,-0.0464 -0.1391567,-0.0754 -0.1391567,-0.20874 0,-0.0754 0.052184,-0.17974 0.017395,-0.029 0.1101658,-0.37688 l 0.052184,-0.21454 q 0.046386,-0.12756 0.081175,-0.24352 0.034789,-0.12176 0.06378,-0.20873 0.092771,-0.3363 0.1159639,-0.35949 v -0.058 q -0.017395,-0.029 -0.3420935,-0.029 -0.3536899,0 -0.7363708,0.0464 h -0.347893 -0.150753 q -0.028991,0.0638 -0.1681477,0.51024 -0.1391567,0.44066 -0.1565513,0.56243 -0.040587,0.19134 -0.12755999,0.52763 -0.0869729,0.3421 -0.13335849,0.49865 z"
       transform="translate(0,-6.7236874e-6)" />
    <path
       id="path817"
       style="font-style:normal;font-variant:normal;font-weight:bold;font-stretch:normal;font-size:5.79819536px;line-height:125%;font-family:Caveat;-inkscape-font-specification:'Caveat Bold';text-align:start;letter-spacing:0.8697294px;word-spacing:0px;writing-mode:lr-tb;text-anchor:start;fill:#f88379;fill-opacity:1;stroke:none;stroke-width:0.43486464px;stroke-linecap:butt;stroke-linejoin:miter;stroke-opacity:1"
       d="m 4.8888416,294.57571 0.046385,-0.27251 q 0.052184,-0.37688 0.1159639,-0.68419 0.069578,-0.3073 0.092771,-0.3073 0.023193,-0.0116 0.023193,-0.0638 0.0058,-0.058 0.0058,-0.0812 l 0.011596,-0.14495 -0.086973,0.0116 q -0.069578,-0.0116 -0.081175,-0.029 -0.011596,-0.0174 -0.011596,-0.10436 0.0058,-0.087 0.017395,-0.13916 0.017394,-0.058 0.06378,-0.0638 0.098569,-0.0348 0.1971386,-0.11017 0.098569,-0.0812 0.092771,-0.13336 0.0058,-0.058 0.086973,-0.23192 0.086973,-0.17395 0.1971386,-0.38268 0.06378,-0.21454 0.06378,-0.27252 0.046386,-0.16815 0.046386,-0.18554 0.023193,-0.058 0.023193,-0.058 0,-0.0232 -0.034789,-0.0232 -0.017395,0 -0.086973,0.0116 -0.011596,0.006 -0.06378,0.0116 -0.052184,0.006 -0.1043675,0 -0.069578,0.0174 -0.1101657,-0.0232 -0.034789,-0.0406 -0.052184,-0.0812 -0.017395,-0.0464 -0.023193,-0.058 -0.046386,-0.0464 -0.046386,-0.0986 0,-0.029 0.017394,-0.0464 0.017395,-0.0232 0.046386,-0.0174 h 0.011596 q 0.034789,0 0.081175,-0.0464 0.028991,-0.029 0.1217621,-0.0696 0.092771,-0.0406 0.2029369,-0.0464 0.086973,-0.006 0.2783133,-0.0522 0.1913405,-0.0464 0.2145333,-0.0696 0,-0.029 0.040587,-0.029 0.040587,0 0.046386,0 0.034789,-0.006 0.092771,-0.0116 0.06378,-0.0116 0.081175,-0.006 0.1217621,-0.0522 0.6783888,-0.0464 l 0.1449549,0.0116 q 0.075376,0 0.075376,-0.0232 0.017395,0 0.086973,0.0116 0.075376,0.0116 0.1565513,0.0348 0.1623494,0.0116 0.2493224,0.0406 0.086973,0.0232 0.1333584,0.11597 0.046386,0.0928 0.040587,0.27831 l -0.023193,0.13336 -0.1565512,-0.0522 q -0.1217621,-0.0174 -0.3362954,-0.0406 -0.2145332,-0.0232 -0.3478917,-0.0232 -0.06378,0 -0.086973,0.006 -0.046386,0 -0.1217621,0.0116 -0.075377,0.006 -0.1275603,0 -0.086973,0.0232 -0.1797441,0.0232 l -0.069578,-0.006 q -0.034789,0.0116 -0.098569,0.0232 -0.057982,0.0116 -0.081175,0.029 -0.011596,0.006 -0.040587,0.0232 -0.028991,0.0116 -0.046386,0.0116 -0.011596,0 -0.017395,0.0174 -0.0058,0.0174 -0.011596,0.058 0,0.0348 -0.0058,0.087 0.0058,0.0696 -0.0058,0.0986 -0.0058,0.029 -0.034789,0.087 -0.092771,0.20873 -0.1217621,0.28411 -0.023193,0.058 -0.046386,0.0986 -0.017395,0.0406 -0.028991,0.0696 -0.052184,0.0928 -0.06378,0.14495 -0.06378,0.17395 -0.1217621,0.26672 0.0058,0.058 0.023193,0.058 0.017395,0 0.046386,-0.029 0.011596,0.006 0.040587,0.006 0.034789,0 0.092771,-0.029 0.057982,0 0.1159639,0.0116 v -0.006 q 0,-0.0174 0.057982,-0.0174 0.06378,-0.006 0.1043675,-0.0116 0.040587,-0.0232 0.1681476,-0.0464 0.092771,-0.0232 0.1275603,-0.0348 0.069578,-0.029 0.086973,-0.029 0.028991,0 0.1043675,0.0348 0.069578,0.0928 0.069578,0.27831 0,0.12176 -0.034789,0.15075 l -0.1797441,0.0638 q -0.017395,-0.006 -0.057982,-0.006 -0.086973,0 -0.1449548,0.029 -0.098569,0.058 -0.2551206,0.058 -0.092771,0 -0.1449549,-0.006 -0.028991,0.0232 -0.098569,0.0348 -0.06378,0.006 -0.081175,0.0174 -0.017395,0 -0.069578,0.0116 -0.052184,0.006 -0.069578,0 -0.034789,0 -0.034789,0.087 0,0.0174 -0.017395,0.0406 -0.011596,0.0232 -0.017395,0.029 -0.023193,0.0174 -0.034789,0.0348 -0.0058,0.0174 -0.0058,0.0406 0,0.0174 -0.0058,0.087 -0.0058,0.0696 -0.028991,0.13336 -0.075376,0.24932 -0.1333584,0.49864 -0.057982,0.24353 -0.034789,0.27252 0.017395,0.0174 0.081175,0.0232 0.069578,0 0.092771,0 0.0058,-0.006 0.017395,-0.006 0.023193,0 0.040587,0.0406 0.017395,0.0348 0.028991,0.087 -0.0058,0.0174 -0.1101657,0.13336 l -0.1275603,0.14496 q -0.098569,0.24352 -0.2145333,0.24352 -0.057982,0 -0.1449548,-0.0754 z"
       transform="translate(0,-6.7236874e-6)" />
  </g>
</svg>
